<svg width="21" height="20" viewBox="0 0 21 20" fill="none" xmlns="http://www.w3.org/2000/svg">
<path d="M14.8205 11C15.5705 11 16.2305 10.59 16.5705 9.97L20.1505 3.48C20.5205 2.82 20.0405 2 19.2805 2H4.48051L3.54051 0H0.270508V2H2.27051L5.87051 9.59L4.52051 12.03C3.79051 13.37 4.75051 15 6.27051 15H18.2705V13H6.27051L7.37051 11H14.8205ZM5.43051 4H17.5805L14.8205 9H7.80051L5.43051 4ZM6.27051 16C5.17051 16 4.28051 16.9 4.28051 18C4.28051 19.1 5.17051 20 6.27051 20C7.37051 20 8.27051 19.1 8.27051 18C8.27051 16.9 7.37051 16 6.27051 16ZM16.2705 16C15.1705 16 14.2805 16.9 14.2805 18C14.2805 19.1 15.1705 20 16.2705 20C17.3705 20 18.2705 19.1 18.2705 18C18.2705 16.9 17.3705 16 16.2705 16Z" fill="#5B3E38"/>
</svg>
