<svg width="18" height="18" viewBox="0 0 18 18" fill="none" xmlns="http://www.w3.org/2000/svg">
<path d="M13.2506 11.4716H12.4606L12.1806 11.2016C13.3806 9.80157 14.0006 7.89157 13.6606 5.86157C13.1906 3.08157 10.8706 0.861573 8.07063 0.521573C3.84063 0.00157288 0.280626 3.56157 0.800626 7.79157C1.14063 10.5916 3.36063 12.9116 6.14063 13.3816C8.17063 13.7216 10.0806 13.1016 11.4806 11.9016L11.7506 12.1816V12.9716L16.0006 17.2216C16.4106 17.6316 17.0806 17.6316 17.4906 17.2216C17.9006 16.8116 17.9006 16.1416 17.4906 15.7316L13.2506 11.4716ZM7.25063 11.4716C4.76063 11.4716 2.75063 9.46157 2.75063 6.97157C2.75063 4.48157 4.76063 2.47157 7.25063 2.47157C9.74063 2.47157 11.7506 4.48157 11.7506 6.97157C11.7506 9.46157 9.74063 11.4716 7.25063 11.4716Z" fill="#5B3E38"/>
</svg>
