<svg width="21" height="18" viewBox="0 0 21 18" fill="none" xmlns="http://www.w3.org/2000/svg">
<path d="M17.9346 1.16717C15.2946 -0.632832 12.0346 0.207168 10.2746 2.26717C8.51463 0.207168 5.25463 -0.642832 2.61463 1.16717C1.21463 2.12717 0.334627 3.74717 0.274627 5.45717C0.134627 9.33717 3.57463 12.4472 8.82463 17.2172L8.92463 17.3072C9.68463 17.9972 10.8546 17.9972 11.6146 17.2972L11.7246 17.1972C16.9746 12.4372 20.4046 9.32717 20.2746 5.44717C20.2146 3.74717 19.3346 2.12717 17.9346 1.16717ZM10.3746 15.7272L10.2746 15.8272L10.1746 15.7272C5.41463 11.4172 2.27463 8.56717 2.27463 5.67717C2.27463 3.67717 3.77463 2.17717 5.77463 2.17717C7.31463 2.17717 8.81463 3.16717 9.34463 4.53717H11.2146C11.7346 3.16717 13.2346 2.17717 14.7746 2.17717C16.7746 2.17717 18.2746 3.67717 18.2746 5.67717C18.2746 8.56717 15.1346 11.4172 10.3746 15.7272Z" fill="#5B3E38"/>
</svg>
